<?xml version="1.0" encoding="UTF-8" standalone="no"?>
<svg
   xmlns:dc="http://purl.org/dc/elements/1.1/"
   xmlns:cc="http://creativecommons.org/ns#"
   xmlns:rdf="http://www.w3.org/1999/02/22-rdf-syntax-ns#"
   xmlns:svg="http://www.w3.org/2000/svg"
   xmlns="http://www.w3.org/2000/svg"
   height="32"
   width="32"
   id="svg3404"
   xml:space="preserve"
   enable-background="new -63.5 817.5 100 100"
   viewBox="-63.5 817.5 32 32"
   y="0px"
   x="0px"
   version="1.1"><metadata
     id="metadata3432"><rdf:RDF><cc:Work
         rdf:about=""><dc:format>image/svg+xml</dc:format><dc:type
           rdf:resource="http://purl.org/dc/dcmitype/StillImage" /><dc:title></dc:title></cc:Work></rdf:RDF></metadata><defs
     id="defs3430" /><g
     transform="translate(-34.237973,-34.256191)"
     id="g3406"><g
       id="g3408"><g
         transform="matrix(0.38857561,0,0,0.38857561,-8.108727,530.5673)"
         style="fill:#ffffff"
         id="g3410"><g
           style="fill:#ffffff"
           id="g3412"><path
             style="fill:#ffffff"
             id="path3414"
             d="m -19.183,904.921 c -4.813,0 -9.423,-1.026 -13.701,-3.05 -0.593,-0.28 -1.209,-0.603 -1.875,-0.98 -3.574,-1.411 -9.526,-7.77 -11.159,-11.488 -1.725,-3.926 -3.347,-8.257 -3.535,-13.308 -0.317,-8.541 2.191,-16.72 7.456,-24.308 2.102,-3.032 4.318,-5.509 6.776,-7.57 2.874,-2.41 6.377,-4.322 10.708,-5.842 3.869,-1.359 7.96,-2.332 12.161,-2.892 3.26,-0.436 6.565,-0.791 9.762,-1.136 1.177,-0.127 2.353,-0.254 3.529,-0.385 8.278,-0.921 15.3,-2.743 21.469,-5.572 0.333,-0.15 0.61,-0.221 0.743,-0.255 l 4.763,-1.357 -0.427,4.924 c -0.04,0.43 -0.076,0.855 -0.111,1.278 -0.079,0.934 -0.161,1.901 -0.281,2.872 -0.115,0.931 -0.228,1.861 -0.34,2.793 -0.365,3.021 -0.743,6.146 -1.213,9.231 -1.839,12.055 -4.038,21.13 -7.128,29.426 -1.413,3.791 -3.001,7.092 -4.855,10.092 -2.275,3.68 -5.405,6.857 -9.851,10 -5.27,3.727 -11.031,6.103 -17.122,7.063 -1.954,0.307 -3.895,0.464 -5.769,0.464 z m -13.213,-10.389 0.303,0.067 0.451,0.261 c 0.61,0.354 1.152,0.642 1.657,0.88 3.413,1.614 6.946,2.399 10.802,2.399 1.522,0 3.108,-0.129 4.713,-0.382 5.052,-0.796 9.85,-2.781 14.262,-5.9 3.676,-2.6 6.218,-5.15 7.998,-8.029 1.618,-2.616 3.014,-5.525 4.269,-8.893 2.922,-7.844 5.013,-16.504 6.779,-28.081 0.455,-2.981 0.826,-6.053 1.185,-9.022 0.049,-0.405 0.098,-0.811 0.147,-1.216 -5.531,1.979 -11.627,3.324 -18.48,4.087 -1.184,0.132 -2.368,0.26 -3.552,0.387 -3.154,0.34 -6.416,0.691 -9.592,1.115 -3.742,0.499 -7.379,1.362 -10.811,2.568 -3.597,1.263 -6.329,2.737 -8.597,4.64 -1.989,1.668 -3.808,3.708 -5.561,6.238 -4.472,6.446 -6.517,13.051 -6.252,20.192 0.137,3.697 1.286,7.004 2.967,10.832 1.241,2.828 5.852,7.09 7.312,7.857 z" /></g></g><g
         transform="matrix(0.38857561,0,0,0.38857561,-8.108727,530.5673)"
         style="fill:#ffffff"
         id="g3416"><path
           style="clip-rule:evenodd;fill:#ffffff;fill-rule:evenodd"
           id="path3418"
           d="m -41.854,889.552 c 0.064,0.118 0.146,0.226 0.156,0.24 1.316,-1.503 2.558,-3.049 3.934,-4.465 2.688,-2.766 5.698,-5.17 8.784,-7.475 7.161,-5.345 14.73,-10.058 22.473,-14.503 0.574,-0.329 1.155,-0.649 1.733,-0.975 0.04,0.047 0.081,0.092 0.121,0.138 -12.842,8.721 -24.03,19.047 -33.845,30.713" /></g><g
         transform="matrix(0.38857561,0,0,0.38857561,-8.108727,530.5673)"
         style="fill:#ffffff"
         id="g3420"><path
           style="clip-rule:evenodd;fill:#ffffff;fill-rule:evenodd"
           id="path3422"
           d="m -39.005,894.782 c -4.06,4.37 -8.16,11.234 -8.16,11.234 -1.084,1.814 -3.055,3.011 -4.379,2.656 -1.324,-0.355 -3.783,-2.693 -2.565,-4.422 0,0 6.214,-8.82 10.877,-14.362" /></g></g></g></svg>