<?xml version="1.0" encoding="UTF-8" standalone="no"?>
<!-- Created with Inkscape (http://www.inkscape.org/) -->

<svg
   xmlns:dc="http://purl.org/dc/elements/1.1/"
   xmlns:cc="http://creativecommons.org/ns#"
   xmlns:rdf="http://www.w3.org/1999/02/22-rdf-syntax-ns#"
   xmlns:svg="http://www.w3.org/2000/svg"
   xmlns="http://www.w3.org/2000/svg"
   xmlns:sodipodi="http://sodipodi.sourceforge.net/DTD/sodipodi-0.dtd"
   xmlns:inkscape="http://www.inkscape.org/namespaces/inkscape"
   version="1.1"
   id="svg2"
   xml:space="preserve"
   width="32"
   height="32"
   viewBox="0 0 32 32"
   sodipodi:docname="batch_tank.svg"
   inkscape:version="0.92.5 (0.92.5+68)"><metadata
     id="metadata8"><rdf:RDF><cc:Work
         rdf:about=""><dc:format>image/svg+xml</dc:format><dc:type
           rdf:resource="http://purl.org/dc/dcmitype/StillImage" /><dc:title></dc:title></cc:Work></rdf:RDF></metadata><defs
     id="defs6"><clipPath
       clipPathUnits="userSpaceOnUse"
       id="clipPath18"><path
         d="M 0,335.694 H 216 V 0 H 0 Z"
         id="path16"
         inkscape:connector-curvature="0" /></clipPath><clipPath
       clipPathUnits="userSpaceOnUse"
       id="clipPath34"><path
         d="m 85.002,226.397 h 48.628 v 48.628 H 85.002 Z"
         id="path32"
         inkscape:connector-curvature="0" /></clipPath><clipPath
       clipPathUnits="userSpaceOnUse"
       id="clipPath46"><path
         d="M 0,335.694 H 216 V 0 H 0 Z"
         id="path44"
         inkscape:connector-curvature="0" /></clipPath></defs><sodipodi:namedview
     pagecolor="#ffffff"
     bordercolor="#666666"
     borderopacity="1"
     objecttolerance="10"
     gridtolerance="10"
     guidetolerance="10"
     inkscape:pageopacity="0"
     inkscape:pageshadow="2"
     inkscape:window-width="1855"
     inkscape:window-height="1056"
     id="namedview4"
     showgrid="false"
     inkscape:pagecheckerboard="true"
     fit-margin-top="0"
     fit-margin-left="0"
     fit-margin-right="0"
     fit-margin-bottom="0"
     inkscape:zoom="16.872508"
     inkscape:cx="-1.1147715"
     inkscape:cy="10.160717"
     inkscape:window-x="65"
     inkscape:window-y="24"
     inkscape:window-maximized="1"
     inkscape:current-layer="g10" /><g
     id="g10"
     inkscape:groupmode="layer"
     inkscape:label="Large - Batch Tank"
     transform="matrix(1.3333333,0,0,-1.3333333,-232.03131,236.01246)"><g
       id="g12"
       transform="matrix(0.07489852,0,0,0.07489852,177.91399,152.65039)"><g
         id="g14"
         clip-path="url(#clipPath18)"><g
           id="g20"
           transform="translate(152.0367,315.8706)"><path
             d="m 0,0 v 0 c 0.775,-0.411 1.216,-0.987 1.216,-1.59 v -5.988 c -6.004,0.183 -42.532,0.383 -43.39,0.383 l -2.392,0.026 c -0.858,0 -38.868,-0.678 -44.177,-0.409 v 5.595 c 0,0.564 0.386,1.107 1.075,1.512 l 1.036,0.609 c 0.931,0.548 2.213,0.857 3.552,0.857 H -4.437 C -2.789,0.995 -1.204,0.639 0,0"
             style="fill:#ffffff;fill-opacity:1;fill-rule:nonzero;stroke:none"
             id="path22"
             inkscape:connector-curvature="0" /></g><g
           id="g24"
           transform="translate(130.5924,325.2261)"><path
             d="m 0,0 c 2.103,0.008 4.04,-1.136 5.049,-2.979 l 1.706,-3.119 c 0,-0.112 -1.828,-0.205 -2.434,-0.205 H -49.3 c -0.606,0 -1.096,0.093 -1.096,0.205 l 1.158,2.565 c 0.924,2.044 2.957,3.361 5.201,3.369 z"
             style="fill:#ffffff;fill-opacity:1;fill-rule:nonzero;stroke:none"
             id="path26"
             inkscape:connector-curvature="0" /></g></g></g><g
       id="g40"
       transform="matrix(0.07198991,0,0,0.07331086,178.23301,152.90013)"><g
         id="g42"
         clip-path="url(#clipPath46)"><g
           id="g48"
           transform="translate(112.6481,6.3531)"><path
             d="m 0,0 h -8.836 c -59.645,0.657 -79.671,2.156 -81.927,8.412 v 286.976 c 6.381,4.356 20.851,5.835 85.506,6.565 H 5.257 c 59.15,-0.176 72.54,-2.64 76.642,-6.565 V 7.838 C 79.813,2.946 56.209,-0.569 0,0 Z"
             style="fill:none;stroke:#ffffff;stroke-width:10.01354885;stroke-linecap:butt;stroke-linejoin:miter;stroke-miterlimit:10;stroke-dasharray:none;stroke-opacity:1"
             id="path50"
             inkscape:connector-curvature="0" /></g><g
           id="g52"
           transform="translate(109.9156,9.6812)" /></g></g></g></svg>