<svg xmlns="http://www.w3.org/2000/svg" width="30" height="30" viewBox="0 0 30 30">
  <g fill="#FFF" transform="translate(6)">
    <path d="M1.79999995,1.79999995 L1.79999995,28.2 L16.2,28.2 L16.2,1.79999995 L1.79999995,1.79999995 Z M1,0 L17,0 C17.5522847,-1.01453063e-16 18,0.44771525 18,1 L18,29 C18,29.5522847 17.5522847,30 17,30 L1,30 C0.44771525,30 6.76353751e-17,29.5522847 0,29 L0,1 C-6.76353751e-17,0.44771525 0.44771525,1.01453063e-16 1,0 Z"/>
    <path d="M1.79999995 5.79999995L1.79999995 22.2 16.2 22.2 16.2 5.79999995 1.79999995 5.79999995zM0 4L18 4 18 24 0 24 0 4zM7.39999998 25.2000008L10.6 25.2000008C11.0970563 25.2000008 11.5 25.6029445 11.5 26.1000007 11.5 26.597057 11.0970563 27.0000007 10.6 27.0000007L7.39999998 27.0000007C6.90294371 27.0000007 6.5 26.597057 6.5 26.1000007 6.5 25.6029445 6.90294371 25.2000008 7.39999998 25.2000008z"/>
  </g>
</svg>
