<svg xmlns="http://www.w3.org/2000/svg" width="30" height="30" viewBox="0 0 30 30">
  <g fill="#FFF" fill-rule="evenodd">
    <path fill-rule="nonzero" d="M15.9297424,11 L24,11 C26.209139,11 28,12.790861 28,15 C28,17.209139 26.209139,19 24,19 L15.9297424,19 C16.2540043,18.4394479 16.5122041,17.8358993 16.693696,17.2 L24,17.2 C25.2150265,17.2 26.2,16.2150265 26.2,15 C26.2,13.7849735 25.2150265,12.8 24,12.8 L16.693696,12.8 C16.5122041,12.1641007 16.2540043,11.5605521 15.9297424,11 L15.9297424,11 Z"/>
    <path d="M9,8 C12.8659932,8 16,11.1340068 16,15 C16,18.8659932 12.8659932,22 9,22 C5.13400675,22 2,18.8659932 2,15 C2,11.1340068 5.13400675,8 9,8 Z M12.031,17.5 L13.095,17.5 L13.095,14.658 L13.942,14.658 L13.942,13.79 L13.081,13.79 L13.081,13.643 C13.081,13.372332 13.209332,13.237 13.466,13.237 C13.6200008,13.237 13.7809991,13.267333 13.949,13.328 L13.949,12.446 C13.7296656,12.3759997 13.4776681,12.341 13.193,12.341 C12.8149981,12.341 12.528001,12.438999 12.332,12.635 C12.1313323,12.8356677 12.031,13.138998 12.031,13.545 L12.031,13.783 L11.59,13.783 L11.59,14.658 L12.031,14.658 L12.031,17.5 Z M9.35699998,17.5 L10.421,17.5 L10.421,14.658 L11.268,14.658 L11.268,13.79 L10.407,13.79 L10.407,13.643 C10.407,13.372332 10.535332,13.237 10.792,13.237 C10.9460008,13.237 11.1069991,13.267333 11.275,13.328 L11.275,12.446 C11.0556656,12.3759997 10.8036681,12.341 10.519,12.341 C10.1409981,12.341 9.85400096,12.438999 9.65799998,12.635 C9.45733231,12.8356677 9.35699998,13.138998 9.35699998,13.545 L9.35699998,13.783 L8.91599998,13.783 L8.91599998,14.658 L9.35699998,14.658 L9.35699998,17.5 Z M6.11699998,17.584 C6.86367038,17.584 7.4854975,17.3378358 7.98249998,16.8455 C8.47950247,16.3531642 8.72799998,15.7546702 8.72799998,15.05 L8.72799998,15.036 C8.72799998,14.3313298 8.48183578,13.7351691 7.98949998,13.2475 C7.49716419,12.7598309 6.87767038,12.516 6.13099998,12.516 C5.38432958,12.516 4.76250247,12.7621642 4.26549998,13.2545 C3.7684975,13.7468358 3.51999998,14.3453298 3.51999998,15.05 L3.51999998,15.064 C3.51999998,15.7686702 3.76616419,16.3648309 4.25849998,16.8525 C4.75083578,17.3401691 5.37032958,17.584 6.11699998,17.584 Z M6.13099998,16.59 C5.7016645,16.59 5.34700138,16.4406682 5.06699998,16.142 C4.78699858,15.8433318 4.64699998,15.4793355 4.64699998,15.05 L4.64699998,15.036 C4.64699998,14.6066645 4.78466527,14.2450015 5.05999998,13.951 C5.33533469,13.6569985 5.6876645,13.51 6.11699998,13.51 C6.54633546,13.51 6.90099858,13.6593318 7.18099998,13.958 C7.46100138,14.2566682 7.60099998,14.6206645 7.60099998,15.05 L7.60099998,15.064 C7.60099998,15.4933355 7.46333469,15.8549985 7.18799998,16.149 C6.91266527,16.4430015 6.56033546,16.59 6.13099998,16.59 Z"/>
  </g>
</svg>
